# xmcd
#
# Track frame offsets: 
#        150
#        14437
#        32339
#        49064
#        64416
#        87561
#        96478
#        115483
#        138020
#        155105
#        167142
#
# Disc length: 2399 seconds
#
# Revision: 0
# Processed by: cddbd v1.5.1PL0 Copyright (c) Steve Scherf et al.
# Submitted via: ExactAudioCopy v0.95a3
#
DISCID=97095d0b
DTITLE=Brian Brody - Brian Brody Live
DYEAR=2004
DGENRE=Easy Listening
TTITLE0=Rambles Of Spring
TTITLE1=Black Velvet Road
TTITLE2=Rocky Road To Dublin
TTITLE3=Molly Malone
TTITLE4=Mary Mack
TTITLE5=500 Miles
TTITLE6=What's Up
TTITLE7=With Or Without You
TTITLE8=Annie's Song
TTITLE9=Dancing Queen
TTITLE10=Port Of Amsterdam
EXTD=
EXTT0=
EXTT1=
EXTT2=
EXTT3=
EXTT4=
EXTT5=
EXTT6=
EXTT7=
EXTT8=
EXTT9=
EXTT10=
PLAYORDER=
